<?xml version="1.0" encoding="utf-8"?>
<!-- Generator: Adobe Illustrator 25.4.1, SVG Export Plug-In . SVG Version: 6.00 Build 0)  -->
<svg version="1.1" id="Glyph_Gradient" xmlns="http://www.w3.org/2000/svg" xmlns:xlink="http://www.w3.org/1999/xlink" x="0px"
	 y="0px" viewBox="0 0 512 512" enable-background="new 0 0 512 512" xml:space="preserve">
<linearGradient id="SVGID_1_" gradientUnits="userSpaceOnUse" x1="88.1264" y1="464.7933" x2="423.8734" y2="129.0463">
	<stop  offset="0" style="stop-color:#5EBCE5"/>
	<stop  offset="0.5335" style="stop-color:#B678E6"/>
	<stop  offset="1" style="stop-color:#E25B61"/>
</linearGradient>
<path fill="url(#SVGID_1_)" d="M144,282.234L112,292.9V200h1.143c7.948,15.706,18.412,29.929,30.857,42.143V282.234z M96,136H82
	c-1.103,0-2,0.897-2,2v44c0,1.103,0.897,2,2,2h14V136z M148.501,432.912c-2.59-0.6-5.255-0.912-7.982-0.912h-9.039
	C111.916,432,96,447.917,96,467.48c0,3.344,1.303,6.489,3.667,8.854c2.364,2.364,5.508,3.666,8.853,3.666h39.432
	c-1.856-3.782-2.902-8.031-2.902-12.52v-16C145.05,445.025,146.244,438.757,148.501,432.912z M202.414,416.511
	c-1.939-0.326-3.908-0.511-5.894-0.511c-9.47,0-18.378,3.692-25.082,10.397c-6.699,6.698-10.388,15.606-10.388,25.083v16
	c0,6.903,5.616,12.52,12.521,12.52l16.759,0c-3.991-5.853-6.329-12.92-6.329-20.523C184,442.596,191.081,427.347,202.414,416.511z
	 M216,200h-23.423c6.984,6.159,14.865,11.321,23.423,15.259V200z M224,184c4.418,0,8,3.582,8,8v28.963
	c7.674,1.982,15.716,3.037,24,3.037s16.326-1.055,24-3.037V192c0-4.418,3.582-8,8-8h45.927c9.9-13.738,16.26-30.186,17.737-48H288
	c-4.418,0-8-3.582-8-8V34c0-1.103-0.897-2-2-2h-44c-1.103,0-2,0.897-2,2v94c0,4.418-3.582,8-8,8h-63.664
	c1.477,17.814,7.837,34.262,17.737,48H224z M319.423,200H296v15.259C304.558,211.321,312.439,206.159,319.423,200z M368,242.143
	v96.091l32,10.667V200h-1.143C390.909,215.706,380.445,229.929,368,242.143z M367.718,136C363.6,194.036,315.065,240,256,240
	s-107.6-45.964-111.718-104H112.22c4.166,75.695,67.063,136,143.78,136s139.614-60.305,143.78-136H367.718z M380.52,432h-9.039
	c-2.728,0-5.396,0.302-7.987,0.898c2.261,5.849,3.457,12.121,3.457,18.582v16c0,4.49-1.046,8.738-2.902,12.52h39.432
	c3.345,0,6.488-1.302,8.853-3.667c2.364-2.365,3.667-5.509,3.667-8.854C416,447.917,400.084,432,380.52,432z M430,136h-14v48h14
	c1.103,0,2-0.897,2-2v-44C432,136.897,431.103,136,430,136z M268.523,400c3.926,0,7.761,0.392,11.477,1.122V286.2
	c-7.831,1.183-15.844,1.8-24,1.8s-16.169-0.617-24-1.8v114.922c3.716-0.729,7.551-1.122,11.477-1.122H268.523z M268.523,416h-25.047
	C219.504,416,200,435.503,200,459.477c0,11.317,9.207,20.523,20.523,20.523h70.953c11.316,0,20.523-9.207,20.523-20.523
	C312,435.503,292.496,416,268.523,416z M315.48,416c-1.986,0-3.955,0.185-5.894,0.511C320.919,427.347,328,442.596,328,459.477
	c0,7.604-2.338,14.67-6.33,20.523h16.759c6.904,0,12.521-5.617,12.521-12.52v-16c0-9.477-3.688-18.385-10.387-25.083
	C333.858,419.692,324.95,416,315.48,416z"/>
</svg>
